<svg width="250" height="250" viewBox="-125 -125 250 250" role="img" aria-label="bloub 动画头像" xmlns="http://www.w3.org/2000/svg"><defs><mask id="bot-mask-mcostz" maskUnits="userSpaceOnUse" x="-158" y="-158" width="316" height="316"><path d="M91.54 -0.28C92.84 2.71 93.87 5.89 94.56 9.07C95.25 12.26 95.64 15.57 95.7 18.83C95.76 22.09 95.49 25.42 94.91 28.63C94.34 31.84 93.43 35.05 92.24 38.09C91.05 41.12 89.53 44.09 87.77 46.83C86.01 49.57 83.95 52.19 81.69 54.54C79.43 56.88 76.9 59.04 74.22 60.9C71.55 62.75 68.65 64.38 65.67 65.67C62.68 66.97 59.52 67.99 56.34 68.68C53.16 69.36 49.26 68.61 46.61 69.79C43.96 70.97 42.64 73.91 40.45 75.75C38.25 77.59 35.9 79.31 33.44 80.84C30.98 82.36 28.37 83.73 25.7 84.89C23.03 86.05 20.24 87.03 17.42 87.78C14.59 88.54 11.68 89.1 8.77 89.43C5.86 89.76 2.89 89.88 -0.03 89.79C-2.96 89.69 -5.91 89.37 -8.78 88.84C-11.65 88.32 -14.51 87.57 -17.26 86.64C-20 85.7 -22.71 84.55 -25.27 83.24C-27.84 81.92 -30.29 80.36 -32.64 78.75C-35 77.15 -36.62 74.48 -39.38 73.61C-42.13 72.74 -45.92 73.87 -49.17 73.54C-52.42 73.22 -55.71 72.59 -58.86 71.68C-62.01 70.76 -65.15 69.53 -68.1 68.04C-71.04 66.56 -73.91 64.76 -76.54 62.75C-79.17 60.74 -81.67 58.44 -83.89 55.97C-86.11 53.49 -88.14 50.77 -89.87 47.92C-91.6 45.08 -93.09 42.02 -94.27 38.9C-95.45 35.79 -96.35 32.5 -96.93 29.23C-97.51 25.95 -97.79 22.56 -97.76 19.23C-97.73 15.91 -97.39 12.53 -96.75 9.28C-96.11 6.03 -95.15 2.79 -93.94 -0.28C-92.72 -3.35 -91.19 -6.34 -89.45 -9.12C-87.7 -11.9 -85.67 -14.55 -83.47 -16.94C-81.27 -19.34 -78.19 -21.29 -76.25 -23.49C-74.31 -25.69 -72.69 -27.65 -71.84 -30.14C-70.99 -32.63 -71.62 -35.7 -71.15 -38.44C-70.68 -41.17 -69.96 -43.93 -69.02 -46.55C-68.08 -49.18 -66.89 -51.78 -65.5 -54.21C-64.11 -56.65 -62.47 -59 -60.68 -61.16C-58.88 -63.31 -56.85 -65.35 -54.7 -67.15C-52.55 -68.96 -50.2 -70.6 -47.77 -72C-45.34 -73.4 -42.75 -74.6 -40.11 -75.55C-37.48 -76.5 -34.72 -77.22 -31.97 -77.69C-29.23 -78.16 -26.4 -78.38 -23.63 -78.37C-20.86 -78.35 -18.05 -78.08 -15.35 -77.58C-12.65 -77.09 -9.96 -76.34 -7.4 -75.4C-4.85 -74.46 -2.36 -73.27 -0.03 -71.93C2.29 -70.59 4.41 -68.52 6.55 -67.34C8.68 -66.16 10.49 -64.88 12.76 -64.87C15.04 -64.85 17.66 -66.7 20.21 -67.27C22.76 -67.85 25.41 -68.21 28.04 -68.32C30.67 -68.43 33.36 -68.3 35.99 -67.93C38.61 -67.56 41.25 -66.94 43.77 -66.09C46.29 -65.25 48.79 -64.15 51.12 -62.85C53.46 -61.56 55.71 -60.02 57.78 -58.31C59.84 -56.61 61.78 -54.68 63.5 -52.62C65.22 -50.56 66.77 -48.31 68.09 -45.97C69.4 -43.64 70.52 -41.14 71.39 -38.6C72.26 -36.07 72.9 -33.41 73.29 -30.77C73.68 -28.13 72.55 -25.15 73.74 -22.74C74.92 -20.34 78.23 -18.66 80.4 -16.34C82.57 -14.03 84.9 -11.54 86.76 -8.86C88.62 -6.19 90.24 -3.27 91.54 -0.28Z" fill="#fff"/><path d="M-9.3 -11.3A9.3 9.3 0 0 1 0 -20.6L0 -20.6A9.3 9.3 0 0 1 9.3 -11.3L9.3 11.3A9.3 9.3 0 0 1 0 20.6L0 20.6A9.3 9.3 0 0 1 -9.3 11.3Z" transform="matrix(0.86,-0.33,0.46,0.83,14.15,-30.91)" opacity="1" fill="#000"/><path d="M-9.3 -11.3A9.3 9.3 0 0 1 0 -20.6L0 -20.6A9.3 9.3 0 0 1 9.3 -11.3L9.3 11.3A9.3 9.3 0 0 1 0 20.6L0 20.6A9.3 9.3 0 0 1 -9.3 11.3Z" transform="matrix(0.63,-0.06,0.46,0.83,49.5,-42.92)" opacity="1" fill="#000"/></mask></defs><g fill="none" stroke-linecap="round"></g><g opacity="1"><path d="M91.54 -0.28C92.84 2.71 93.87 5.89 94.56 9.07C95.25 12.26 95.64 15.57 95.7 18.83C95.76 22.09 95.49 25.42 94.91 28.63C94.34 31.84 93.43 35.05 92.24 38.09C91.05 41.12 89.53 44.09 87.77 46.83C86.01 49.57 83.95 52.19 81.69 54.54C79.43 56.88 76.9 59.04 74.22 60.9C71.55 62.75 68.65 64.38 65.67 65.67C62.68 66.97 59.52 67.99 56.34 68.68C53.16 69.36 49.26 68.61 46.61 69.79C43.96 70.97 42.64 73.91 40.45 75.75C38.25 77.59 35.9 79.31 33.44 80.84C30.98 82.36 28.37 83.73 25.7 84.89C23.03 86.05 20.24 87.03 17.42 87.78C14.59 88.54 11.68 89.1 8.77 89.43C5.86 89.76 2.89 89.88 -0.03 89.79C-2.96 89.69 -5.91 89.37 -8.78 88.84C-11.65 88.32 -14.51 87.57 -17.26 86.64C-20 85.7 -22.71 84.55 -25.27 83.24C-27.84 81.92 -30.29 80.36 -32.64 78.75C-35 77.15 -36.62 74.48 -39.38 73.61C-42.13 72.74 -45.92 73.87 -49.17 73.54C-52.42 73.22 -55.71 72.59 -58.86 71.68C-62.01 70.76 -65.15 69.53 -68.1 68.04C-71.04 66.56 -73.91 64.76 -76.54 62.75C-79.17 60.74 -81.67 58.44 -83.89 55.97C-86.11 53.49 -88.14 50.77 -89.87 47.92C-91.6 45.08 -93.09 42.02 -94.27 38.9C-95.45 35.79 -96.35 32.5 -96.93 29.23C-97.51 25.95 -97.79 22.56 -97.76 19.23C-97.73 15.91 -97.39 12.53 -96.75 9.28C-96.11 6.03 -95.15 2.79 -93.94 -0.28C-92.72 -3.35 -91.19 -6.34 -89.45 -9.12C-87.7 -11.9 -85.67 -14.55 -83.47 -16.94C-81.27 -19.34 -78.19 -21.29 -76.25 -23.49C-74.31 -25.69 -72.69 -27.65 -71.84 -30.14C-70.99 -32.63 -71.62 -35.7 -71.15 -38.44C-70.68 -41.17 -69.96 -43.93 -69.02 -46.55C-68.08 -49.18 -66.89 -51.78 -65.5 -54.21C-64.11 -56.65 -62.47 -59 -60.68 -61.16C-58.88 -63.31 -56.85 -65.35 -54.7 -67.15C-52.55 -68.96 -50.2 -70.6 -47.77 -72C-45.34 -73.4 -42.75 -74.6 -40.11 -75.55C-37.48 -76.5 -34.72 -77.22 -31.97 -77.69C-29.23 -78.16 -26.4 -78.38 -23.63 -78.37C-20.86 -78.35 -18.05 -78.08 -15.35 -77.58C-12.65 -77.09 -9.96 -76.34 -7.4 -75.4C-4.85 -74.46 -2.36 -73.27 -0.03 -71.93C2.29 -70.59 4.41 -68.52 6.55 -67.34C8.68 -66.16 10.49 -64.88 12.76 -64.87C15.04 -64.85 17.66 -66.7 20.21 -67.27C22.76 -67.85 25.41 -68.21 28.04 -68.32C30.67 -68.43 33.36 -68.3 35.99 -67.93C38.61 -67.56 41.25 -66.94 43.77 -66.09C46.29 -65.25 48.79 -64.15 51.12 -62.85C53.46 -61.56 55.71 -60.02 57.78 -58.31C59.84 -56.61 61.78 -54.68 63.5 -52.62C65.22 -50.56 66.77 -48.31 68.09 -45.97C69.4 -43.64 70.52 -41.14 71.39 -38.6C72.26 -36.07 72.9 -33.41 73.29 -30.77C73.68 -28.13 72.55 -25.15 73.74 -22.74C74.92 -20.34 78.23 -18.66 80.4 -16.34C82.57 -14.03 84.9 -11.54 86.76 -8.86C88.62 -6.19 90.24 -3.27 91.54 -0.28Z" fill="#f9f9f9"/><g mask="url(#bot-mask-mcostz)"><rect x="-158" y="-158" width="316" height="316" fill="#0a0a0c"/></g></g><g></g><g fill="none" stroke-linecap="round"></g></svg>